<?xml version="1.0" encoding="UTF-8" standalone="no" ?>
<!DOCTYPE svg PUBLIC "-//W3C//DTD SVG 1.1//EN" "http://www.w3.org/Graphics/SVG/1.1/DTD/svg11.dtd">
<svg xmlns="http://www.w3.org/2000/svg" xmlns:xlink="http://www.w3.org/1999/xlink" version="1.1" width="1080" height="1080" viewBox="0 0 1080 1080" xml:space="preserve">
<desc>Created with Fabric.js 5.2.4</desc>
<defs>
</defs>
<g transform="matrix(1 0 0 1 540 540)" id="9773cc3d-aad9-496e-a70b-9c42abf40619"  >
<rect style="stroke: none; stroke-width: 1; stroke-dasharray: none; stroke-linecap: butt; stroke-dashoffset: 0; stroke-linejoin: miter; stroke-miterlimit: 4; fill: rgb(255,255,255); fill-rule: nonzero; opacity: 1; visibility: hidden;" vector-effect="non-scaling-stroke"  x="-540" y="-540" rx="0" ry="0" width="1080" height="1080" />
</g>
<g transform="matrix(1 0 0 1 540 540)" id="e0b8807f-e775-4429-93c5-92e15dd293b9"  >
</g>
<g transform="matrix(1 0 0 1 540 540)"  >
<g style="" vector-effect="non-scaling-stroke"   >
		<g transform="matrix(1 0 0 1 186.03 -49.66)"  >
<path style="stroke: none; stroke-width: 1; stroke-dasharray: none; stroke-linecap: butt; stroke-dashoffset: 0; stroke-linejoin: miter; stroke-miterlimit: 4; fill: rgb(255,255,255); fill-rule: evenodd; opacity: 1;" vector-effect="non-scaling-stroke"  transform=" translate(-685.34, -199.83)" d="M 984.5105 25.415961 L 753.99628 25.415961 L 753.99628 103.92739999999999 L 821.39409 103.92739999999999 L 821.39409 374.59355 L 917.11302 374.59355 L 917.11302 103.92739999999998 L 984.5105 103.92739999999998 L 984.5105 25.41596099999998 z M 731.05221 374.234901 L 635.3330199999999 374.234901 L 635.3330199999999 25.41596099999998 L 731.05221 25.41596099999998 L 731.05221 374.234901 z M 619.20062 374.234901 L 512.72677 374.234901 L 386.17696 238.36428099999998 L 386.17696 160.57003099999997 L 508.78321 25.057290999999964 L 618.48387 25.057290999999964 L 477.23551000000003 200.72194099999996 L 619.2006200000001 374.2349009999999 z" stroke-linecap="round" />
</g>
		<g transform="matrix(1 0 0 1 -136.08 124.75)"  >
<path style="stroke: none; stroke-width: 1; stroke-dasharray: none; stroke-linecap: butt; stroke-dashoffset: 0; stroke-linejoin: miter; stroke-miterlimit: 4; fill: rgb(255,255,255); fill-rule: evenodd; opacity: 1;" vector-effect="non-scaling-stroke"  transform=" translate(-363.23, -374.23)" d="M 363.2329 374.2349 L 363.2329 374.2349 L 363.2329 374.2349 L 363.2329 374.2349 z" stroke-linecap="round" />
</g>
		<g transform="matrix(1 0 0 1 -136.08 124.75)"  >
<path style="stroke: none; stroke-width: 1; stroke-dasharray: none; stroke-linecap: butt; stroke-dashoffset: 0; stroke-linejoin: miter; stroke-miterlimit: 4; fill: rgb(255,255,255); fill-rule: evenodd; opacity: 1;" vector-effect="non-scaling-stroke"  transform=" translate(-363.23, -374.23)" d="M 363.2329 374.2349 L 363.2329 374.2349 L 363.2329 374.2349 L 363.2329 374.2349 z" stroke-linecap="round" />
</g>
		<g transform="matrix(1 0 0 1 -295.61 14.15)"  >
<path style="stroke: none; stroke-width: 1; stroke-dasharray: none; stroke-linecap: butt; stroke-dashoffset: 0; stroke-linejoin: miter; stroke-miterlimit: 4; fill: rgb(255,255,255); fill-rule: evenodd; opacity: 1;" vector-effect="non-scaling-stroke"  transform=" translate(-203.7, -263.64)" d="M 90.415838 153.04142 C 72.13225499999999 175.26853999999997 56.35857299999999 199.64647 44.169293999999994 225.81674999999998 L 363.23290399999996 374.2349 L 90.41584399999994 153.04142 z" stroke-linecap="round" />
</g>
		<g transform="matrix(1 0 0 1 -247.03 -33.53)"  >
<path style="stroke: none; stroke-width: 1; stroke-dasharray: none; stroke-linecap: butt; stroke-dashoffset: 0; stroke-linejoin: miter; stroke-miterlimit: 4; fill: rgb(255,255,255); fill-rule: evenodd; opacity: 1;" vector-effect="non-scaling-stroke"  transform=" translate(-252.28, -215.96)" d="M 363.2329 374.2349 L 214.45625 57.681003 C 187.92722 69.86959 163.54950000000002 84.927083 141.32261 102.85194999999999 L 363.2329 374.2349 z" stroke-linecap="round" />
</g>
		<g transform="matrix(1 0 0 1 -178.38 -49.66)"  >
<path style="stroke: none; stroke-width: 1; stroke-dasharray: none; stroke-linecap: butt; stroke-dashoffset: 0; stroke-linejoin: miter; stroke-miterlimit: 4; fill: rgb(255,255,255); fill-rule: evenodd; opacity: 1;" vector-effect="non-scaling-stroke"  transform=" translate(-320.93, -199.83)" d="M 363.2329 374.2349 L 363.59135999999995 25.415959999999984 L 360.72362999999996 25.415959999999984 C 332.40211999999997 25.415959999999984 304.79772999999994 29.001348999999983 278.26899 35.45417699999999 L 363.2329 374.23489699999993 z" stroke-linecap="round" />
</g>
		<g transform="matrix(1 0 0 1 -136.08 124.75)"  >
<path style="stroke: none; stroke-width: 1; stroke-dasharray: none; stroke-linecap: butt; stroke-dashoffset: 0; stroke-linejoin: miter; stroke-miterlimit: 4; fill: rgb(255,255,255); fill-rule: evenodd; opacity: 1;" vector-effect="non-scaling-stroke"  transform=" translate(-363.23, -374.23)" d="M 363.2329 374.2349 L 363.2329 374.2349 L 363.2329 374.2349 L 363.2329 374.2349 L 363.2329 374.2349 z" stroke-linecap="round" />
</g>
		<g transform="matrix(1 0 0 1 -136.08 124.75)"  >
<path style="stroke: none; stroke-width: 1; stroke-dasharray: none; stroke-linecap: butt; stroke-dashoffset: 0; stroke-linejoin: miter; stroke-miterlimit: 4; fill: rgb(255,255,255); fill-rule: evenodd; opacity: 1;" vector-effect="non-scaling-stroke"  transform=" translate(-363.23, -374.23)" d="M 363.2329 374.2349 L 363.2329 374.2349 L 363.2329 374.2349 L 363.2329 374.2349 L 363.2329 374.2349 z" stroke-linecap="round" />
</g>
		<g transform="matrix(1 0 0 1 -312.64 82.09)"  >
<path style="stroke: none; stroke-width: 1; stroke-dasharray: none; stroke-linecap: butt; stroke-dashoffset: 0; stroke-linejoin: miter; stroke-miterlimit: 4; fill: rgb(255,255,255); fill-rule: evenodd; opacity: 1;" vector-effect="non-scaling-stroke"  transform=" translate(-186.67, -331.57)" d="M 21.225547 288.91246 C 14.055733 316.15854 10.470699999999999 344.83813 10.112112999999999 374.23490000000004 L 363.232903 374.23490000000004 L 21.225553000000048 288.91246 z" stroke-linecap="round" />
</g>
		<g transform="matrix(1 0 0 1 0 193.58)"  >
<path style="stroke: none; stroke-width: 1; stroke-dasharray: none; stroke-linecap: butt; stroke-dashoffset: 0; stroke-linejoin: miter; stroke-miterlimit: 4; fill: rgb(255,255,255); fill-rule: nonzero; opacity: 1;" vector-effect="non-scaling-stroke"  transform=" translate(-499.31, -443.07)" d="M 989.33109 452.77847 C 987.8889300000001 453.96978 983.37518 455.97604 979.48802 455.97604 C 973.9068 455.97604 968.95453 451.64965 968.95453 445.3176 L 991.77629 445.3176 C 991.77629 435.03436000000005 988.32745 427.25962000000004 977.66932 427.25962000000004 C 968.64111 427.25962000000004 962.68353 433.96955 962.68353 443.43667000000005 C 962.68353 453.84482 967.88831 460.75179 979.2367 460.75179 C 984.50246 460.75179 987.07387 459.48703 989.33109 458.67207 L 989.33109 452.77847 z M 968.95453 440.92919 C 969.39334 436.79069 971.77568 432.02555 977.5445 432.02555 C 982.62268 432.02555 985.50639 436.03785 985.50639 440.92919 L 968.95453 440.92919 z M 949.88208 459.98834 L 955.77557 459.98834 L 955.77557 428.01195 L 949.88208 428.01195 L 949.88208 459.98834 z M 956.15174 414.21893 L 949.5057400000001 414.21893 L 949.5057400000001 420.86495 L 956.15174 420.86495 L 956.15174 414.21893 z M 579.73309 415.60706 L 586.28419 415.60706 L 586.28419 422.28413 L 579.73309 422.28413 z M 593.7462599999999 415.60706 L 600.2973599999999 415.60706 L 600.2973599999999 422.28413 L 593.7462599999999 422.28413 z M 612.5175499999999 459.98834 L 618.4111399999999 459.98834 L 618.4111399999999 445.44256 C 618.4111399999999 437.41807 621.8597299999999 432.40195 627.1256799999999 432.40195 C 628.1293499999999 432.40195 629.3206499999999 432.5269 630.3869399999999 432.96575 L 630.3869399999999 427.69966 C 629.1332099999998 427.44847 628.2543199999999 427.25962 626.4995899999999 427.25962 C 623.1134399999999 427.25962 619.7272199999999 429.64337 618.1597499999999 432.96574999999996 L 618.0347999999999 432.96574999999996 L 618.0347999999999 428.01194999999996 L 612.5175699999999 428.01194999999996 L 612.5175699999999 459.98833999999994 z M 604.15339 427.24849 L 598.25979 427.24849 L 598.25979 442.04543 C 598.25979 449.82023000000004 595.25127 455.21259000000003 588.54144 455.21259000000003 C 583.4003799999999 454.89864000000006 581.7706 451.26264000000003 581.7706 443.80174000000005 L 581.7706 427.24849000000006 L 575.8770099999999 427.24849000000006 L 575.8770099999999 446.2467700000001 C 575.8770099999999 454.8361700000001 579.57562 459.9883400000001 587.8527899999999 459.9883400000001 C 592.30383 459.9883400000001 596.5675399999999 457.7836600000001 598.3237899999999 454.1462500000001 L 598.44873 454.1462500000001 L 598.44873 459.22489000000013 L 604.15342 459.22489000000013 L 604.15342 427.2484900000001 z M 286.3997299999999 459.98834 L 292.29331999999994 459.98834 L 292.29331999999994 445.44256 C 292.29331999999994 437.41807 295.74190999999996 432.40195 301.00784999999996 432.40195 C 302.01152999999994 432.40195 303.20282999999995 432.5269 304.26912 432.96575 L 304.26912 427.69966 C 303.01538999999997 427.44847 302.13649 427.25962 300.38176999999996 427.25962 C 296.99560999999994 427.25962 293.60939999999994 429.64337 292.04193 432.96574999999996 L 291.91697999999997 432.96574999999996 L 291.91697999999997 428.01194999999996 L 286.39975 428.01194999999996 L 286.39975 459.98833999999994 z M 941.38105 428.01195 L 935.9262799999999 428.01195 L 935.9262799999999 432.77831000000003 L 935.8013299999999 432.77831000000003 C 934.0462299999999 429.32979000000006 930.9115299999999 427.25962000000004 925.2678599999999 427.25962000000004 C 915.6121899999999 427.25962000000004 910.97232 436.03785000000005 910.97232 444.25164000000007 C 910.97232 452.5274100000001 915.48717 459.98834000000005 924.64186 459.98834000000005 C 928.71638 459.98834000000005 932.8552099999999 458.35821000000004 935.36244 455.03614000000005 L 935.48759 455.03614000000005 L 935.48759 458.1708100000001 C 935.48759 464.9531300000001 931.78879 469.15411000000006 925.58168 469.15411000000006 C 921.25568 469.15411000000006 918.55929 468.33772000000005 914.04468 466.26903000000004 L 913.41837 471.72388000000007 C 918.55929 473.48006000000004 921.50533 473.91895000000005 924.89171 473.91895000000005 C 936.36618 473.91895000000005 941.3809 468.33772000000005 941.3809 458.60960000000006 L 941.3809 428.01195000000007 z M 926.14533 455.22349 C 920.6280399999999 455.22349 917.2435099999999 449.9574 917.2435099999999 443.93771000000004 C 917.2435099999999 438.48294000000004 920.1895399999999 432.02555000000007 926.14533 432.02555000000007 C 932.41523 432.02555000000007 935.4877399999999 437.73057000000006 935.4877399999999 444.37660000000005 C 935.4877399999999 450.33382000000006 931.6640299999999 455.22349 926.14533 455.22349 z M 872.6638999999999 444.00018 C 872.6638999999999 453.1549 879.3098999999999 460.75179 888.9656999999999 460.75179 C 898.5592399999998 460.75179 905.2051799999998 453.15490000000005 905.2051799999998 444.00018 C 905.2051799999998 434.28198 898.6842099999998 427.25962 888.9656999999999 427.25962 C 879.1849799999999 427.25962 872.6638999999999 434.28198 872.6638999999999 444.00018 z M 878.9350499999999 444.00018 C 878.9350499999999 437.91944 882.6334999999999 432.02555 888.9657 432.02555 C 895.23556 432.02555 898.9356 437.91944 898.9356 444.00018 C 898.9356 449.70626 895.86307 455.97604 888.9657 455.97604 C 882.0060599999999 455.97604 878.9350499999999 449.70626 878.9350499999999 444.00018 z M 858.1184199999999 459.98834 L 864.0119699999999 459.98834 L 864.0119699999999 412.96522 L 858.1184199999999 412.96522 L 858.1184199999999 459.98834 z M 816.92518 444.00018 C 816.92518 453.1549 823.5708699999999 460.75179 833.2269299999999 460.75179 C 842.82017 460.75179 849.46624 453.15490000000005 849.46624 444.00018 C 849.46624 434.28198 842.9451399999999 427.25962 833.2269299999999 427.25962 C 823.4459899999999 427.25962 816.92518 434.28198 816.92518 444.00018 z M 823.1959999999999 444.00018 C 823.1959999999999 437.91944 826.8944899999999 432.02555 833.2269299999999 432.02555 C 839.49664 432.02555 843.1965299999999 437.91944 843.1965299999999 444.00018 C 843.1965299999999 449.70626 840.1241399999999 455.97604 833.2269299999999 455.97604 C 826.2674199999999 455.97604 823.1959999999999 449.70626 823.1959999999999 444.00018 z M 780.7490499999999 459.98834 L 786.6426399999999 459.98834 L 786.6426399999999 445.1915 C 786.6426399999999 437.41807 789.6526799999999 432.02555 796.3608499999999 432.02555 C 801.5020499999999 432.33825 803.1318799999999 435.97579 803.1318799999999 443.43667 L 803.1318799999999 459.98834 L 809.0254699999999 459.98834 L 809.0254699999999 440.99167 C 809.0254699999999 432.40195 805.3269499999999 427.25962 797.0511399999999 427.25962 C 792.5987799999999 427.25962 788.3349299999999 429.4547 786.5801499999999 433.09067999999996 L 786.4552099999999 433.09067999999996 L 786.4552099999999 428.01194999999996 L 780.7490099999999 428.01194999999996 L 780.7490099999999 459.98833999999994 z M 742.4408899999999 459.98834 L 748.3344799999999 459.98834 L 748.3344799999999 445.1915 C 748.3344799999999 437.41807 751.3442199999998 432.02555 758.0526899999999 432.02555 C 763.1936499999998 432.33825 764.8234299999999 435.97579 764.8234299999999 443.43667 L 764.8234299999999 459.98834 L 770.7173099999999 459.98834 L 770.7173099999999 440.99167 C 770.7173099999999 432.40195 767.0185099999999 427.25962 758.7426799999998 427.25962 C 754.2903199999998 427.25962 750.5918099999998 429.20326 748.4594899999998 432.58934999999997 L 748.3345399999998 432.58934999999997 L 748.3345399999998 412.96522 L 742.4409499999998 412.96522 L 742.4409499999998 459.98834 z M 735.4185899999999 428.51487 C 733.7262799999999 427.82487 730.6540799999999 427.25962 728.2714599999999 427.25962 C 718.4906299999999 427.25962 711.9697299999999 434.28198 711.9697299999999 444.00018 C 711.9697299999999 453.1549 718.6154999999999 460.75179 728.2714599999999 460.75179 C 730.4026799999999 460.75179 733.2249599999999 460.56294 735.6699699999999 459.42454000000004 L 735.2313999999999 454.1587 C 733.4126399999999 455.34999 730.9051399999998 455.97604 728.8989599999999 455.97604 C 721.3117799999999 455.97604 718.2394299999999 449.70626 718.2394299999999 444.00018 C 718.2394299999999 437.91944 721.9392799999998 432.02555 728.5226699999998 432.02555 C 730.4026799999998 432.02555 732.6600099999998 432.46439000000004 734.9174599999999 433.40423 L 735.4185899999999 428.51487 z M 704.2572099999999 452.77846999999997 C 702.8150599999999 453.96977999999996 698.3013199999999 455.97603999999995 694.4141999999998 455.97603999999995 C 688.8329099999999 455.97603999999995 683.8806799999999 451.64964999999995 683.8806799999999 445.31759999999997 L 706.7024199999998 445.31759999999997 C 706.7024199999998 435.03436 703.2535899999998 427.25962 692.5955199999999 427.25962 C 683.5672899999998 427.25962 677.6096999999999 433.96954999999997 677.6096999999999 443.43667 C 677.6096999999999 453.84481999999997 682.8145299999999 460.75178999999997 694.1628099999998 460.75178999999997 C 699.4285999999998 460.75178999999997 701.9999999999998 459.48702999999995 704.2572099999998 458.67206999999996 L 704.2572099999998 452.77846999999997 z M 683.8806799999999 440.92918999999995 C 684.3195299999999 436.7906899999999 686.7018199999999 432.02554999999995 692.4706399999999 432.02554999999995 C 697.5487999999999 432.02554999999995 700.4325099999999 436.03784999999993 700.4325099999999 440.92918999999995 L 683.8806799999999 440.92918999999995 z M 658.8005899999998 459.98833999999994 L 665.0704199999998 459.98833999999994 L 665.0704199999998 421.7423799999999 L 678.6759699999998 421.7423799999999 L 678.6759699999998 416.2251299999999 L 645.1946599999998 416.2251299999999 L 645.1946599999998 421.7423799999999 L 658.8005899999998 421.7423799999999 L 658.8005899999998 459.9883399999999 z M 554.4721599999998 459.98833999999994 L 560.3658399999998 459.98833999999994 L 560.3658399999998 432.7783099999999 L 568.8303099999998 432.7783099999999 L 568.8303099999998 428.0119499999999 L 560.3658399999998 428.0119499999999 L 560.3658399999998 424.5649699999999 C 560.3658399999998 420.2374499999999 560.9919299999998 416.9775299999999 566.0702199999998 416.9775299999999 C 567.0742499999998 416.9775299999999 568.2029499999999 417.1024799999999 568.8928799999999 417.35363999999987 L 569.1426099999999 412.58916999999985 C 567.9515499999999 412.40009999999984 566.6979499999999 412.21274999999986 565.1929099999999 412.21274999999986 C 556.4785399999998 412.21274999999986 554.4721599999999 417.29147999999986 554.4721599999999 425.06595999999985 L 554.4721599999999 428.01194999999984 L 546.94742 428.01194999999984 L 546.94742 432.77830999999986 L 554.4721599999999 432.77830999999986 L 554.4721599999999 459.9883399999999 z M 527.4076099999997 428.01194999999996 L 518.9429899999998 428.01194999999996 L 518.9429899999998 418.73383999999993 L 513.0493999999998 420.6135499999999 L 513.0493999999998 428.0119499999999 L 505.83837999999974 428.0119499999999 L 505.83837999999974 432.7783099999999 L 513.0493999999998 432.7783099999999 L 513.0493999999998 451.46257999999995 C 513.0493999999998 457.85718999999995 516.8105099999998 460.75178999999997 522.8928699999998 460.75178999999997 C 524.7739299999998 460.75178999999997 526.5913899999998 460.25084 527.9089299999998 459.86343 L 527.9089299999998 454.84721 C 527.0314899999998 455.41216000000003 525.7138499999999 455.97604 523.8950299999998 455.97604 C 521.2004299999998 455.97604 518.9429899999998 453.96978 518.9429899999998 450.27128 L 518.9429899999998 432.77831 L 527.4076099999997 432.77831 L 527.4076099999997 428.01194999999996 z M 500.38380999999976 428.01194999999996 L 494.49021999999974 428.01194999999996 L 494.49021999999974 442.80887999999993 C 494.49021999999974 450.58368999999993 491.48168999999973 455.97603999999995 484.77186999999975 455.97603999999995 C 479.63079999999974 455.66209 478.00101999999976 452.02609999999993 478.00101999999976 444.56519 L 478.00101999999976 428.01194999999996 L 472.10742999999974 428.01194999999996 L 472.10742999999974 447.01021999999995 C 472.10742999999974 455.59961999999996 475.80604999999974 460.75178999999997 484.0832099999997 460.75178999999997 C 488.5342499999997 460.75178999999997 492.79796999999974 458.54711 494.5542199999997 454.90970999999996 L 494.6791499999997 454.90970999999996 L 494.6791499999997 459.98833999999994 L 500.3838499999997 459.98833999999994 L 500.3838499999997 428.01194999999996 z M 464.70895999999976 428.01194999999996 L 456.24434999999977 428.01194999999996 L 456.24434999999977 418.73383999999993 L 450.3509299999998 420.6135499999999 L 450.3509299999998 428.0119499999999 L 443.1397599999998 428.0119499999999 L 443.1397599999998 432.7783099999999 L 450.3509299999998 432.7783099999999 L 450.3509299999998 451.46257999999995 C 450.3509299999998 457.85718999999995 454.1119399999998 460.75178999999997 460.19411999999977 460.75178999999997 C 462.07535999999976 460.75178999999997 463.8927599999998 460.25084 465.21033999999975 459.86343 L 465.21033999999975 454.84721 C 464.33292999999975 455.41216000000003 463.01517999999976 455.97604 461.1964599999998 455.97604 C 458.50180999999975 455.97604 456.24434999999977 453.96978 456.24434999999977 450.27128 L 456.24434999999977 432.77831 L 464.70895999999976 432.77831 L 464.70895999999976 428.01194999999996 z M 431.03915999999975 459.98833999999994 L 436.93264999999974 459.98833999999994 L 436.93264999999974 428.01194999999996 L 431.03915999999975 428.01194999999996 L 431.03915999999975 459.98833999999994 z M 437.30881999999974 414.21892999999994 L 430.6628199999997 414.21892999999994 L 430.6628199999997 420.86494999999996 L 437.30881999999974 420.86494999999996 L 437.30881999999974 414.21892999999994 z M 422.88829999999973 428.01194999999996 L 414.4235599999997 428.01194999999996 L 414.4235599999997 418.73383999999993 L 408.5299699999997 420.6135499999999 L 408.5299699999997 428.0119499999999 L 401.3189599999997 428.0119499999999 L 401.3189599999997 432.7783099999999 L 408.5299699999997 432.7783099999999 L 408.5299699999997 451.46257999999995 C 408.5299699999997 457.85718999999995 412.2908899999997 460.75178999999997 418.37325999999973 460.75178999999997 C 420.25450999999975 460.75178999999997 422.07189999999974 460.25084 423.38943999999975 459.86343 L 423.38943999999975 454.84721 C 422.51193999999975 455.41216000000003 421.1945199999997 455.97604 419.3757399999997 455.97604 C 416.6809699999997 455.97604 414.4235599999997 453.96978 414.4235599999997 450.27128 L 414.4235599999997 432.77831 L 422.88829999999973 432.77831 L 422.88829999999973 428.01194999999996 z M 378.80998999999974 458.9857099999999 C 381.50617999999974 460.43794999999994 384.57851999999974 460.7517899999999 387.58690999999976 460.7517899999999 C 393.29303999999973 460.7517899999999 398.74774999999977 457.60581999999994 398.74774999999977 450.77260999999993 C 398.74774999999977 440.5528299999999 384.8922599999998 442.43288999999993 384.8922599999998 435.9129499999999 C 384.8922599999998 433.2792599999999 387.5244099999998 432.0255499999999 390.5343999999998 432.0255499999999 C 391.9144899999998 432.0255499999999 395.42554999999976 432.8407499999999 396.74162999999976 433.6556599999999 L 397.24288999999976 428.5148699999999 C 394.9228199999998 427.8248699999999 392.66689999999977 427.2596199999999 389.9069699999998 427.2596199999999 C 383.5746499999998 427.2596199999999 378.62110999999976 430.4582699999999 378.62110999999976 437.1042499999999 C 378.62110999999976 446.0703199999999 392.47809999999976 445.5674699999999 392.47809999999976 451.3985899999999 C 392.47809999999976 454.8472099999999 389.1558899999998 455.9760399999999 386.45954999999975 455.9760399999999 C 384.76582999999977 455.9760399999999 381.4436899999998 455.2234899999999 379.12362999999976 453.7184099999999 L 378.80998999999974 458.98570999999987 z M 343.1976999999997 459.98833999999994 L 349.09128999999973 459.98833999999994 L 349.09128999999973 445.19149999999996 C 349.09128999999973 437.41806999999994 352.1011599999997 432.02554999999995 358.80953999999974 432.02554999999995 C 363.9505099999997 432.33824999999996 365.58047999999974 435.97578999999996 365.58047999999974 443.43666999999994 L 365.58047999999974 459.98833999999994 L 371.47407999999973 459.98833999999994 L 371.47407999999973 440.99166999999994 C 371.47407999999973 432.40194999999994 367.77538999999973 427.2596199999999 359.4996399999997 427.2596199999999 C 355.0472199999997 427.2596199999999 350.7836199999997 429.45469999999995 349.0288199999997 433.0906799999999 L 348.9038699999997 433.0906799999999 L 348.9038699999997 428.0119499999999 L 343.1977199999997 428.0119499999999 L 343.1977199999997 459.9883399999999 z M 326.3308299999997 459.98833999999994 L 332.6005999999997 459.98833999999994 L 332.6005999999997 416.2251299999999 L 326.3308299999997 416.2251299999999 L 326.3308299999997 459.98833999999994 z M 274.3828399999997 452.7784699999999 C 272.9402699999997 453.9697799999999 268.4268599999997 455.9760399999999 264.5394699999997 455.9760399999999 C 258.9582999999997 455.9760399999999 254.0060499999997 451.6496499999999 254.0060499999997 445.3175999999999 L 276.8277899999997 445.3175999999999 C 276.8277899999997 435.03435999999994 273.37897999999973 427.2596199999999 262.7207499999997 427.2596199999999 C 253.69248999999974 427.2596199999999 247.73508999999973 433.9695499999999 247.73508999999973 443.43666999999994 C 247.73508999999973 453.8448199999999 252.93983999999972 460.7517899999999 264.28819999999973 460.7517899999999 C 269.55415999999974 460.7517899999999 272.12536999999975 459.4870299999999 274.38283999999976 458.6720699999999 L 274.38283999999976 452.7784699999999 z M 254.0060499999997 440.9291899999999 C 254.4448799999997 436.79068999999987 256.8273099999997 432.0255499999999 262.5957599999997 432.0255499999999 C 267.6743399999997 432.0255499999999 270.5578399999997 436.0378499999999 270.5578399999997 440.9291899999999 L 254.0060499999997 440.9291899999999 z M 211.5592299999997 459.9883399999999 L 217.4526999999997 459.9883399999999 L 217.4526999999997 445.1914999999999 C 217.4526999999997 437.4180699999999 220.4625499999997 432.0255499999999 227.17103999999972 432.0255499999999 C 232.31206999999972 432.3382499999999 233.94188999999972 435.9757899999999 233.94188999999972 443.4366699999999 L 233.94188999999972 459.9883399999999 L 239.8354799999997 459.9883399999999 L 239.8354799999997 440.9916699999999 C 239.8354799999997 432.4019499999999 236.1369699999997 427.25961999999987 227.8609799999997 427.25961999999987 C 223.4085999999997 427.25961999999987 219.7101699999997 429.2032599999999 217.5775999999997 432.58934999999985 L 217.4526599999997 432.58934999999985 L 217.4526599999997 412.9652199999999 L 211.5591899999997 412.9652199999999 L 211.5591899999997 459.9883399999999 z M 201.5269799999997 428.0119499999999 L 195.6335999999997 428.0119499999999 L 195.6335999999997 442.8088799999999 C 195.6335999999997 450.5836899999999 192.6250299999997 455.9760399999999 185.9152199999997 455.9760399999999 C 180.7741899999997 455.6620899999999 179.1442499999997 452.0260999999999 179.1442499999997 444.5651899999999 L 179.1442499999997 428.0119499999999 L 173.25076999999968 428.0119499999999 L 173.25076999999968 447.0102199999999 C 173.25076999999968 455.5996199999999 176.94945999999968 460.7517899999999 185.22661999999968 460.7517899999999 C 189.6776499999997 460.7517899999999 193.9411099999997 458.5471099999999 195.6974399999997 454.9097099999999 L 195.8223899999997 454.9097099999999 L 195.8223899999997 459.9883399999999 L 201.5270199999997 459.9883399999999 L 201.5270199999997 428.0119499999999 z M 148.8604799999997 459.9883399999999 L 154.7540699999997 459.9883399999999 L 154.7540699999997 445.4425599999999 C 154.7540699999997 437.4180699999999 158.2026599999997 432.4019499999999 163.4685999999997 432.4019499999999 C 164.4722799999997 432.4019499999999 165.66357999999968 432.5268999999999 166.7298699999997 432.9657499999999 L 166.7298699999997 427.6996599999999 C 165.4761399999997 427.4484699999999 164.5972399999997 427.25961999999987 162.8425199999997 427.25961999999987 C 159.4563599999997 427.25961999999987 156.0701499999997 429.6433699999999 154.50266999999968 432.96574999999984 L 154.37772999999967 432.96574999999984 L 154.37772999999967 428.01194999999984 L 148.86049999999966 428.01194999999984 L 148.86049999999966 459.9883399999998 z M 121.77407999999971 458.98570999999987 C 124.47035999999972 460.4379499999999 127.54270999999972 460.75178999999986 130.55121999999972 460.75178999999986 C 136.2572399999997 460.75178999999986 141.7120099999997 457.6058199999999 141.7120099999997 450.7726099999999 C 141.7120099999997 440.55282999999986 127.85644999999971 442.4328899999999 127.85644999999971 435.91294999999985 C 127.85644999999971 433.27925999999985 130.4887499999997 432.02554999999984 133.4986499999997 432.02554999999984 C 134.87868999999972 432.02554999999984 138.3896599999997 432.84074999999984 139.7057399999997 433.65565999999984 L 140.2071399999997 428.51486999999986 C 137.8871999999997 427.82486999999986 135.6310699999997 427.25961999999987 132.8710799999997 427.25961999999987 C 126.5388999999997 427.25961999999987 121.58528999999969 430.45826999999986 121.58528999999969 437.10424999999987 C 121.58528999999969 446.07031999999987 135.44248999999968 445.56746999999984 135.44248999999968 451.39858999999984 C 135.44248999999968 454.84720999999985 132.12003999999968 455.97603999999984 129.4237999999997 455.97603999999984 C 127.7301399999997 455.97603999999984 124.40786999999969 455.22348999999986 122.08781999999968 453.71840999999984 L 121.77407999999969 458.9857099999998 z M 107.79220999999971 459.9883399999999 L 113.68568999999971 459.9883399999999 L 113.68568999999971 412.9652199999999 L 107.79220999999971 412.9652199999999 L 107.79220999999971 459.9883399999999 z M 82.64939399999972 459.9883399999999 L 88.54298699999971 459.9883399999999 L 88.54298699999971 445.4425599999999 C 88.54298699999971 437.4180699999999 91.9915499999997 432.4019499999999 97.25747299999972 432.4019499999999 C 98.26133399999972 432.4019499999999 99.45242699999972 432.5268999999999 100.51875999999972 432.9657499999999 L 100.51875999999972 427.6996599999999 C 99.26498899999972 427.4484699999999 98.38629899999971 427.25961999999987 96.63130999999971 427.25961999999987 C 93.24528099999972 427.25961999999987 89.85900399999971 429.6433699999999 88.29171699999972 432.96574999999984 L 88.16656699999972 432.96574999999984 L 88.16656699999972 428.01194999999984 L 82.64939399999972 428.01194999999984 L 82.64939399999972 459.9883399999998 z M 49.60703499999972 435.2854999999999 C 51.98942799999972 433.2792599999999 55.56305899999972 432.0255499999999 58.885378999999716 432.0255499999999 C 64.78012599999971 432.0255499999999 66.78630499999971 434.8469799999999 66.78630499999971 440.3642199999999 C 64.46636399999971 440.2392799999999 62.836604999999714 440.2392799999999 60.51666299999972 440.2392799999999 C 54.434333999999716 440.2392799999999 45.65580899999972 442.74617999999987 45.65580899999972 450.7726899999999 C 45.65580899999972 457.7323299999999 50.48446899999972 460.7518799999999 57.38165699999972 460.7518799999999 C 62.772606999999724 460.7518799999999 65.90759399999972 457.7947999999999 67.28744299999973 455.85106999999994 L 67.41238699999973 455.85106999999994 L 67.41238699999973 459.98841999999996 L 72.92953999999972 459.98841999999996 C 72.80459499999972 459.04857 72.67967199999971 457.35596999999996 72.67967199999971 453.71849 L 72.67967199999971 440.48927 C 72.67967199999971 431.77452999999997 68.97977699999971 427.25969999999995 59.82645999999971 427.25969999999995 C 55.75039299999971 427.25969999999995 52.239274999999715 428.51494999999994 49.293168999999715 430.26967999999994 L 49.606931999999716 435.28558999999996 z M 66.78630499999971 447.5752499999999 C 66.78630499999971 452.33994999999993 63.713976999999716 455.9760399999999 57.88285599999971 455.9760399999999 C 55.186762999999715 455.9760399999999 51.92695599999971 454.1586999999999 51.92695599999971 450.7726099999999 C 51.92695599999971 445.12892999999985 59.82656299999971 444.6276599999999 63.02397999999971 444.6276599999999 C 64.27758699999971 444.6276599999999 65.53119299999972 444.7526099999999 66.78630499999971 444.7526099999999 L 66.78630499999971 447.5752699999999 z M 6.8463259999997135 459.98833999999994 L 13.116174599999713 459.98833999999994 L 13.116174599999713 438.54547999999994 L 32.61520059999971 459.98833999999994 L 41.76989959999971 459.98833999999994 L 19.574510599999712 436.9155799999999 L 40.13995459999971 416.2251299999999 L 31.800300599999712 416.2251299999999 L 13.116174599999713 435.4743499999999 L 13.116174599999713 416.2251299999999 L 6.846325999999713 416.2251299999999 L 6.846325999999713 459.98833999999994 z" stroke-linecap="round" />
</g>
</g>
</g>
</svg>