<?xml version="1.0" encoding="UTF-8" standalone="no" ?>
<!DOCTYPE svg PUBLIC "-//W3C//DTD SVG 1.1//EN" "http://www.w3.org/Graphics/SVG/1.1/DTD/svg11.dtd">
<svg xmlns="http://www.w3.org/2000/svg" xmlns:xlink="http://www.w3.org/1999/xlink" version="1.1" width="1080" height="1080" viewBox="0 0 1080 1080" xml:space="preserve">
<desc>Created with Fabric.js 5.2.4</desc>
<defs>
</defs>
<rect x="0" y="0" width="100%" height="100%" fill="transparent"></rect>
<g transform="matrix(1 0 0 1 540 540)" id="9773cc3d-aad9-496e-a70b-9c42abf40619"  >
<rect style="stroke: none; stroke-width: 1; stroke-dasharray: none; stroke-linecap: butt; stroke-dashoffset: 0; stroke-linejoin: miter; stroke-miterlimit: 4; fill: rgb(255,255,255); fill-rule: nonzero; opacity: 1; visibility: hidden;" vector-effect="non-scaling-stroke"  x="-540" y="-540" rx="0" ry="0" width="1080" height="1080" />
</g>
<g transform="matrix(1 0 0 1 540 540)" id="e0b8807f-e775-4429-93c5-92e15dd293b9"  >
</g>
<g transform="matrix(1.74 0 0 1.74 543.25 539.32)" id="path221"  >
<path style="stroke: rgb(0,0,0); stroke-width: 0; stroke-dasharray: none; stroke-linecap: butt; stroke-dashoffset: 0; stroke-linejoin: miter; stroke-miterlimit: 4; fill: rgb(255,255,255); fill-rule: nonzero; opacity: 1;" vector-effect="non-scaling-stroke"  transform=" translate(-302.95, -63.06)" d="M 145.85586 126.04312 C 137.84653 124.53531 131.65396 121.33331 125.65405000000001 115.59736000000001 C 118.99842000000001 109.23455000000001 114.80228000000001 102.042 112.80790000000002 93.577989 C 111.72594000000002 88.98620700000001 111.43928000000002 80.504223 112.20770000000002 75.81876 C 113.73648000000001 66.49700899999999 117.79507000000001 59.005421999999996 125.48340000000002 51.313694 C 131.72937000000002 45.064959 137.15525000000002 41.623188999999996 143.79244000000003 39.699802999999996 C 152.41417 37.20132699999999 162.55630000000002 38.143784 170.55627000000004 42.186837 C 178.12113000000005 46.009992 186.28176000000005 54.615097999999996 190.02419000000003 62.715081999999995 C 194.35769000000002 72.094376 195.34695000000002 82.75562099999999 192.85355000000004 93.207067 C 189.28705000000005 108.1566 176.40739000000005 121.79200999999999 162.37163000000004 125.47757999999999 C 158.40054000000003 126.52032999999999 149.93124000000003 126.81033999999998 145.85586000000004 126.04311999999999 z M 157.047 125.23377 C 163.36688 124.08804 167.88858 119.41614000000001 170.11565 111.73099 C 171.89926 105.57613 172.06269999999998 103.26175 172.06429999999997 84.137989 C 172.06629999999998 65.445063 171.92146999999997 62.927431000000006 170.47438999999997 56.41707000000001 C 168.64368999999996 48.18085800000001 165.48594999999997 43.24452000000001 160.54577999999998 40.89615900000001 C 154.40343 37.97632800000001 146.70953999999998 39.29379400000001 142.25932999999998 44.02743900000001 C 138.90658999999997 47.59371000000001 136.44878999999997 53.80794300000001 135.28637999999998 61.65762000000001 C 134.30584 68.27912200000002 134.07619999999997 74.09857500000001 134.23901999999998 88.19894300000001 C 134.37937999999997 100.35333000000001 134.47957 102.49143000000001 135.0536 105.58188000000001 C 136.88846999999998 115.46052000000002 140.17282999999998 121.21787 145.45947999999999 123.82296000000001 C 146.71694 124.44259000000001 148.39377 125.07519 149.18577 125.22872000000001 C 151.25743 125.63032000000001 154.84688 125.63262 157.047 125.23372 z M 390.50921 126.02415 C 379.1726 124.1237 368.82844 116.60487 362.20959 105.45410000000001 C 355.52344999999997 94.189957 354.48431 78.94043100000002 359.55532 66.50222200000002 C 362.58722 59.065514000000015 369.3805 50.73064400000002 376.56507999999997 45.63241100000002 C 393.57775 33.56008200000002 414.79073999999997 36.55157900000002 428.36958999999996 52.93798800000002 C 433.91480999999993 59.629719000000016 437.02777 66.45493800000001 438.35785 74.83752800000002 C 438.99343 78.84316000000003 438.79158 88.03182900000002 437.98831 91.65798900000001 C 436.70239000000004 97.46308700000002 434.10031000000004 103.37348000000001 430.73663 108.12954000000002 C 426.73202 113.79191000000002 419.67861999999997 120.05739000000003 414.17253999999997 122.84332000000002 C 411.73542 124.07642000000001 407.18616999999995 125.56069000000002 404.30264999999997 126.06354000000002 C 400.93611999999996 126.65061000000001 394.13023 126.63118000000001 390.50921 126.02414000000002 z M 404.03996 124.64559000000001 C 411.97004 121.83890000000001 415.67474 114.43366000000002 416.70089 99.33798900000002 C 417.11359 93.26644700000003 417.11174 74.64432500000002 416.69789000000003 68.13798900000002 C 415.93091000000004 56.08403600000002 413.67014 48.53131000000002 409.47155000000004 43.99633100000002 C 405.4345 39.63583500000002 398.75866 38.16246300000002 392.70915 40.29684700000002 C 386.92525 42.33752500000002 382.82173 48.22698600000002 380.72377 57.49849400000002 C 379.2063 64.20467900000003 378.46429 76.55550300000002 378.76768 90.05798900000002 C 379.05602999999996 102.89214000000003 379.80924999999996 108.26710000000003 382.18163 114.42014000000002 C 383.27405 117.25339000000002 385.72024999999996 120.89532000000001 387.38246 122.16316000000002 C 389.01139 123.40558000000001 391.28972999999996 124.52467000000001 393.34592 125.09232000000002 C 395.84486 125.78219000000001 401.49564999999996 125.54614000000001 404.0401 124.64559000000001 z M 232.06578000000002 125.59478000000001 C 226.34466 124.37868000000002 220.84386 121.47593000000002 216.30414000000002 117.27745000000002 C 213.21031000000002 114.41617000000002 209.62657000000002 109.49615000000001 207.59159000000002 105.31624000000002 C 204.50670000000002 98.97975900000002 203.21595000000002 93.01570100000002 203.21595000000002 85.09798900000003 C 203.21595000000002 71.99324700000003 207.36230000000003 61.589617000000025 216.14673000000002 52.653310000000026 C 221.96863000000002 46.73074100000002 227.77296 43.457871000000026 235.26578 41.872699000000026 C 239.29177 41.020965000000025 246.40457 41.09254900000003 249.82578 42.01922700000003 C 258.12455 44.26706100000003 264.93175 50.21046200000003 267.0673 57.072897000000026 C 269.66994 65.43628600000002 267.16827 73.29792500000002 260.92651 76.37073800000002 C 259.02861 77.30506700000002 258.55238 77.40322400000002 255.92728 77.40113100000002 C 253.36305 77.39923100000001 252.78388999999999 77.28530100000002 250.94486 76.42222600000002 C 244.36859 73.33591500000003 241.74157 65.57105700000002 245.12921 59.232558000000026 C 246.30124 57.039610000000025 249.24106 54.42481000000002 251.49471 53.570801000000024 C 255.16485 52.180026000000026 259.41225 52.766836000000026 263.23834999999997 55.19327800000002 C 264.08608 55.730890000000024 264.83180999999996 56.11862800000002 264.89552 56.05491300000002 C 265.27495999999996 55.67547600000002 262.2202 51.40719800000002 259.90758 49.08547900000002 C 256.83677 46.00258700000002 254.65733 44.69974600000002 250.80133 43.64186700000002 C 247.81418 42.82235400000002 243.04637 42.67251100000002 240.38578 43.31452300000002 C 233.48519000000002 44.97966600000002 228.92743000000002 50.50064700000002 226.94147 59.60009700000002 C 224.86424 69.11776200000001 224.48089000000002 90.70298100000002 226.18534 102.17585000000003 C 227.90627 113.75962000000003 232.47729999999999 120.14040000000003 240.54578 122.22183000000003 C 242.78202000000002 122.79872000000003 247.87867 122.89473000000002 250.05876 122.40104000000002 C 255.24258 121.22715000000002 259.59495 118.00228000000003 262.88561 112.89701000000002 C 266.47812 107.32344000000002 268.09924 102.59713000000002 268.44187 96.69798900000002 C 268.60206999999997 93.93955100000002 268.73692 93.25798900000002 269.12248999999997 93.25798900000002 C 269.82484 93.25798900000002 269.40723999999994 99.47245600000002 268.41015 103.85860000000002 C 265.65984 115.95701000000003 258.54469 123.27750000000003 247.26577999999998 125.61318000000003 C 243.37691999999998 126.41850000000002 235.89834 126.40945000000004 232.06578 125.59478000000003 z M 308.22578 125.60828000000001 C 299.14694 123.60950000000001 292.01544 118.48557000000001 286.23014 109.80459 C 277.33002 96.44973300000001 276.81714 76.715147 284.99036 62.10007100000001 C 287.90736 56.883984000000005 293.36917 50.81516800000001 298.06422000000003 47.573226000000005 C 306.81375 41.531662000000004 318.62053000000003 39.536913000000006 327.71378000000004 42.56396000000001 C 331.67989000000006 43.88423800000001 334.61861000000005 45.73304800000001 337.84549000000004 48.93797800000001 C 342.41474000000005 53.47616000000001 344.05154000000005 57.32393600000001 344.06105 63.54946900000001 C 344.07105 69.87841700000001 341.43781 74.46111200000001 336.52028 76.674401 C 335.25657 77.243176 334.3773 77.379617 332.06578 77.365617 C 328.66200000000003 77.345007 327.07928000000004 76.838065 324.61877000000004 74.980363 C 318.58972000000006 70.428395 318.08548 61.570423 323.55823000000004 56.350301 C 325.79788 54.214061 327.39592000000005 53.376586 330.02968000000004 52.958861 C 333.30620000000005 52.439197 337.19212000000005 53.496311 340.14578000000006 55.710813 C 340.71778000000006 56.139668 341.1857800000001 56.383597 341.1857800000001 56.252877000000005 C 341.1857800000001 56.12215700000001 340.5857200000001 54.99882900000001 339.85228000000006 53.756592000000005 C 338.23458000000005 51.01662400000001 334.30505000000005 47.014206 331.90578000000005 45.662718000000005 C 326.63487000000003 42.69364600000001 319.42440000000005 42.030478 314.09467000000006 44.024584000000004 C 309.16334000000006 45.86963300000001 305.23028000000005 51.008493 303.4365700000001 57.950256 C 300.6221700000001 68.842133 300.4459700000001 95.414549 303.1136600000001 106.64695 C 305.2141400000001 115.49108000000001 310.0566900000001 120.86477000000001 317.2769500000001 122.36369 C 319.8083400000001 122.88921 324.63823000000014 122.8233 326.86799000000013 122.23281 C 330.87730000000016 121.17107 334.5414000000001 118.71885 337.23196000000013 115.29663 C 341.7582000000001 109.53961 344.13877000000014 103.48625999999999 344.58383000000015 96.602318 C 344.75570000000016 93.94358199999999 344.89817000000016 93.25797899999999 345.27865000000014 93.25797899999999 C 346.40761000000015 93.25797899999999 344.93890000000016 103.64712999999999 343.0961800000001 108.69631999999999 C 341.6442500000001 112.67474999999999 339.8210800000001 115.48025999999999 336.5748400000001 118.73153999999998 C 334.1162500000001 121.19395999999998 333.1950600000001 121.87576999999997 330.62578000000013 123.13470999999998 C 325.88037000000014 125.45996999999998 323.4959900000001 125.96739999999998 316.7057800000001 126.09708999999998 C 311.96586000000013 126.18758999999999 310.46408000000014 126.10108999999999 308.2257800000001 125.60827999999998 z M -1.2142298 122.69799 C -1.2142298 122.07472 -1.0008958000000001 122.05799 6.946624 122.05799 L 15.107477 122.05799 L 15.026627 63.257988000000005 L 14.945777 4.457991600000007 L 6.865777 4.372491600000007 C -0.023089760000000403 4.299591600000007 -1.214223800000001 4.217051600000008 -1.214223800000001 3.812491600000007 C -1.214223800000001 3.396861600000007 2.170501199999999 3.338021600000007 26.065776999999997 3.338251600000007 C 41.860321 3.3384116000000073 54.827771 3.474371600000007 56.865778 3.661201600000007 C 64.007004 4.315831600000007 70.10692399999999 5.810511600000007 75.154748 8.142611600000007 C 86.845938 13.543961000000007 92.477368 22.348661000000007 91.810868 34.18434100000001 C 91.710708 35.96284700000001 91.401668 38.28198900000001 91.124098 39.33798900000001 C 90.376498 42.18215200000001 88.337428 46.09825800000001 86.359278 48.488961 C 82.874148 52.700926 75.879705 56.988074000000005 70.298191 58.333377000000006 C 67.567356 58.99158800000001 67.616162 59.17179000000001 70.609151 59.481511000000005 C 73.176329 59.74716600000001 77.722931 61.305828000000005 80.986118 63.038926000000004 C 91.093478 68.407016 97.248099 75.16989000000001 99.651489 83.54898700000001 C 100.24973 85.63465800000002 100.37089999999999 86.84086900000001 100.36968 90.697989 C 100.36872 93.36957600000001 100.18809 96.15250400000001 99.943619 97.25798900000001 C 96.734059 111.77136000000002 82.608848 121.47639000000001 62.465778 123.00797 C 59.952136 123.19909 45.735419 123.33676 28.465777000000003 123.33721 C -1.0011547999999983 123.33798 -1.2142297999999982 123.33321 -1.2142297999999982 122.69799 z M 61.025772 121.12405000000001 C 69.064249 118.47229000000002 73.20031 113.16968000000001 74.774163 103.49799000000002 C 75.633814 98.21522700000001 76.017443 89.76513800000002 75.599808 85.31160500000001 C 74.491107 73.488699 68.933756 65.014634 59.894473 61.363508 C 56.393644 59.94946 54.195417 59.669514 46.545772 59.663543 L 39.425771 59.657942999999996 L 39.425771 90.882661 L 39.425771 122.10737 L 49.105772 121.98515 C 58.175634 121.87064000000001 58.926962 121.81636 61.025772 121.12400000000001 z M 55.905772000000006 57.896580000000014 C 65.905526 55.797105 70.623552 47.015976 70.060022 31.552863 C 69.77718 23.791781 67.649417 17.559641 63.514924 12.382521 C 61.435196 9.7783316 60.097903 8.5925116 57.425554 6.9828916 C 54.113836 4.988161600000001 52.157106 4.5635216000000005 45.425771999999995 4.3787516 L 39.425771 4.2140616 L 39.425771 31.296023 L 39.425771 58.377988 L 46.545772 58.372388 C 51.560750999999996 58.368488 54.328025 58.22779 55.905772 57.896535 z M 449.98578000000003 122.69799000000002 C 449.98578000000003 122.07932000000002 450.19913 122.05799000000002 456.38579000000004 122.05799000000002 L 462.78579 122.05799000000002 L 462.78579 82.05798900000002 L 462.78579 42.05798900000002 L 455.58579000000003 42.05798900000002 C 449.39913 42.05798900000002 448.38578 41.99042900000002 448.38578 41.577989000000024 C 448.38578 41.157087000000026 450.57244000000003 41.09798900000003 466.14579000000003 41.09798900000003 L 483.90579 41.09798900000003 L 483.93459 50.13798800000003 L 483.96339 59.17798800000003 L 484.53955 57.016836000000026 C 486.64415 49.12215400000002 492.85167 42.27764000000003 500.04054 39.92521800000003 C 502.31145000000004 39.18210400000003 503.13123 39.08093000000003 506.78563 39.09275700000003 C 513.72364 39.11521700000003 518.6406000000001 40.85822600000003 522.90588 44.80722100000003 C 526.99603 48.59406800000003 529.4981700000001 53.24896100000002 530.9863 59.83979300000003 C 531.69644 62.98481400000003 531.70515 63.32612600000003 531.8216 92.53798900000004 L 531.93926 122.05799000000005 L 538.96243 122.05799000000005 C 545.77228 122.05799000000005 545.98563 122.07739000000005 545.98563 122.69799000000005 C 545.98563 123.33198000000004 545.77228 123.33799000000005 523.26563 123.33799000000005 C 500.75897 123.33799000000005 500.54562999999996 123.33199000000005 500.54562999999996 122.69799000000005 C 500.54562999999996 122.08552000000005 500.75897 122.05799000000005 505.50562999999994 122.05799000000005 L 510.4656299999999 122.05799000000005 L 510.46262999999993 89.01798900000006 C 510.46262999999993 69.79895200000006 510.3305899999999 54.85055100000006 510.1503399999999 53.28277200000006 C 509.56767999999994 48.214670000000055 507.9762599999999 44.88124700000006 505.2908799999999 43.10415900000006 C 504.0748799999999 42.299439000000056 503.6849299999999 42.21798900000006 501.0484199999999 42.21798900000006 C 498.4636799999999 42.21798900000006 497.9393299999999 42.32223500000006 496.2702699999999 43.16790900000006 C 491.5896699999999 45.53950900000006 487.3055999999999 52.57990800000006 484.7757499999999 62.05798800000006 C 484.1062399999999 64.56626600000006 484.0903099999999 65.19822800000006 483.9858899999999 93.33798900000005 L 483.8793599999999 122.05799000000005 L 489.0121899999999 122.05799000000005 C 493.9317099999999 122.05799000000005 494.14505999999994 122.08459000000005 494.14505999999994 122.69799000000005 C 494.14505999999994 123.33181000000005 493.93170999999995 123.33799000000005 472.06505999999996 123.33799000000005 C 450.19839999999994 123.33799000000005 449.98506 123.33199000000005 449.98506 122.69799000000005 z M 556.8657900000001 122.69799000000002 C 556.8657900000001 122.07695000000002 557.0791300000001 122.05799000000002 564.0657900000001 122.05799000000002 L 571.2657900000002 122.05799000000002 L 571.2657900000002 82.05798900000002 L 571.2657900000002 42.05798900000002 L 564.0657900000001 42.05798900000002 C 557.8791300000001 42.05798900000002 556.8657900000001 41.99042900000002 556.8657900000001 41.577989000000024 C 556.8657900000001 41.15703500000002 559.07024 41.09798900000003 574.78579 41.09798900000003 L 592.70579 41.09798900000003 L 592.70579 81.57798900000003 L 592.70579 122.05799000000003 L 599.90579 122.05799000000003 C 606.89245 122.05799000000003 607.1057900000001 122.07699000000004 607.1057900000001 122.69799000000003 C 607.1057900000001 123.33255000000003 606.89245 123.33799000000003 581.9857900000001 123.33799000000003 C 557.0791300000001 123.33799000000003 556.8657900000001 123.33299000000004 556.8657900000001 122.69799000000003 z M 577.1217300000001 23.87659100000002 C 573.8798 22.72819100000002 571.24291 20.317891000000017 569.7059200000001 17.097991000000018 C 568.9566700000001 15.528361000000018 568.8657900000001 14.957231000000018 568.8657900000001 11.817992000000018 C 568.8657900000001 7.678641600000018 569.3152 6.407151600000018 571.7182700000001 3.747771600000018 C 575.37283 -0.2966084399999822 581.9279 -1.5618083999999826 586.88435 0.8205415600000179 C 588.88656 1.782901600000018 591.46816 4.468331600000018 592.5926400000001 6.758351600000017 C 593.4208000000001 8.444881600000016 593.50579 8.930761600000018 593.50579 11.977992000000018 C 593.50579 15.082171000000018 593.42979 15.496351000000018 592.5074500000001 17.41799100000002 C 591.29993 19.933881000000017 589.0391000000001 22.24837100000002 586.6364500000001 23.42837100000002 C 584.2958100000001 24.57792100000002 579.7112900000001 24.79389100000002 577.1217300000001 23.87659100000002 z" stroke-linecap="round" />
</g>
</svg>